<svg width="32" height="32" viewBox="0 0 32 32" fill="none" xmlns="http://www.w3.org/2000/svg">
<path d="M22.9067 7C20.6267 7 17.9067 7.86667 17.9067 12V20C17.9067 24.1333 20.6267 25 22.9067 25C25.1867 25 27.9067 24.1333 27.9067 20V12C27.9067 7.86667 25.1867 7 22.9067 7ZM9.09333 7C6.81333 7 4.09333 7.86667 4.09333 12V20C4.09333 24.1333 6.81333 25 9.09333 25C11.3733 25 14.0933 24.1333 14.0933 20V12C14.0933 7.86667 11.3733 7 9.09333 7ZM17.9067 15H14.0933V17H17.9067V15ZM30 20.3333C29.4533 20.3333 29 19.88 29 19.3333V12.6667C29 12.12 29.4533 11.6667 30 11.6667C30.5467 11.6667 31 12.12 31 12.6667V19.3333C31 19.88 30.5467 20.3333 30 20.3333ZM2 20.3333C1.45333 20.3333 1 19.88 1 19.3333V12.6667C1 12.12 1.45333 11.6667 2 11.6667C2.54667 11.6667 3 12.12 3 12.6667V19.3333C3 19.88 2.54667 20.3333 2 20.3333Z" fill="#F97316"/>
</svg>
